<?xml version="1.0" standalone="no"?>
<!DOCTYPE svg PUBLIC "-//W3C//DTD SVG 20010904//EN"
 "http://www.w3.org/TR/2001/REC-SVG-20010904/DTD/svg10.dtd">
<svg version="1.0" xmlns="http://www.w3.org/2000/svg"
 width="700.000000pt" height="700.000000pt" viewBox="0 0 700.000000 700.000000"
 preserveAspectRatio="xMidYMid meet">
<metadata>
Created by potrace 1.11, written by Peter Selinger 2001-2013
</metadata>
<g transform="translate(0.000000,700.000000) scale(0.100000,-0.100000)"
fill="#000000" stroke="none">
<path d="M3430 5983 c-49 -7 -144 -46 -179 -72 -20 -14 -239 -195 -486 -401
-248 -206 -475 -395 -505 -419 -30 -25 -66 -55 -80 -67 -14 -13 -155 -131
-315 -264 -159 -132 -299 -249 -310 -258 -11 -9 -45 -37 -75 -62 -30 -25 -57
-47 -60 -50 -4 -5 -237 -198 -359 -299 -24 -20 -49 -41 -55 -46 -6 -6 -63 -53
-126 -105 -63 -52 -117 -97 -120 -100 -3 -3 -70 -59 -150 -125 -206 -170 -229
-193 -236 -237 -9 -53 1 -81 47 -135 65 -76 79 -93 157 -186 137 -164 144
-162 420 67 114 94 216 179 227 188 11 9 56 47 100 83 44 37 94 78 110 92 17
14 93 78 170 141 77 64 145 121 151 127 14 12 41 35 314 262 118 98 226 188
240 200 14 12 72 60 130 108 58 48 116 97 130 108 14 12 63 53 110 92 47 38
87 72 90 75 3 3 30 25 60 50 30 25 66 54 80 67 28 24 93 79 161 134 127 105
378 315 408 340 32 28 35 29 59 13 21 -14 51 -39 96 -79 6 -6 36 -30 66 -55
30 -25 66 -55 80 -66 14 -12 52 -44 85 -71 50 -42 897 -748 960 -801 12 -9 47
-39 80 -67 33 -27 69 -57 80 -67 104 -86 902 -751 940 -783 223 -189 323 -266
353 -271 45 -9 105 19 139 65 15 20 29 38 32 41 4 3 20 21 36 41 17 20 48 57
70 84 22 26 51 59 63 74 49 54 61 126 29 173 -7 10 -181 158 -387 329 -206
172 -397 330 -424 353 -27 23 -53 44 -59 48 -7 4 -10 281 -11 825 -1 764 -2
821 -19 846 -36 56 -39 56 -476 57 -354 0 -406 -2 -437 -16 -67 -32 -67 -34
-67 -471 0 -216 -2 -393 -5 -393 -4 0 -246 200 -343 284 -20 17 -45 38 -55 46
-41 33 -200 166 -229 192 -141 124 -364 299 -407 320 -86 41 -198 57 -298 41z"/>
<path d="M3319 4817 c-108 -89 -218 -180 -244 -202 -27 -22 -87 -72 -134 -111
-47 -39 -167 -137 -266 -218 -99 -81 -200 -165 -225 -186 -86 -71 -175 -146
-285 -235 -60 -49 -121 -100 -135 -111 -26 -23 -372 -308 -520 -429 -223 -182
-240 -198 -241 -224 0 -14 -1 -453 -1 -976 0 -1051 -4 -983 64 -1061 18 -21
55 -48 83 -60 l50 -24 776 0 776 0 1 737 c0 406 1 744 1 751 1 10 104 12 499
10 l497 -3 2 -730 c0 -401 2 -738 2 -748 1 -16 41 -17 784 -15 739 3 784 4
819 22 52 25 96 72 123 129 l23 48 -1 970 -1 970 -36 32 c-20 18 -47 41 -61
52 -69 57 -273 225 -424 350 -93 77 -206 170 -250 205 -44 36 -82 68 -85 71
-3 3 -81 68 -175 145 -171 140 -339 278 -385 318 -14 11 -59 48 -100 81 -41
33 -77 62 -80 65 -5 6 -223 185 -250 207 -8 6 -49 40 -91 75 -41 35 -98 81
-125 103 -27 22 -76 63 -109 90 -33 28 -64 54 -70 57 -5 3 -98 -67 -206 -155z"/>
</g>
</svg>
